%TF.GenerationSoftware,KiCad,Pcbnew,(5.1.10)-1*%
%TF.CreationDate,2021-05-17T17:41:51-05:00*%
%TF.ProjectId,YMDK_USB_C,594d444b-5f55-4534-925f-432e6b696361,rev?*%
%TF.SameCoordinates,Original*%
%TF.FileFunction,Copper,L1,Top*%
%TF.FilePolarity,Positive*%
%FSLAX46Y46*%
G04 Gerber Fmt 4.6, Leading zero omitted, Abs format (unit mm)*
G04 Created by KiCad (PCBNEW (5.1.10)-1) date 2021-05-17 17:41:51*
%MOMM*%
%LPD*%
G01*
G04 APERTURE LIST*
%TA.AperFunction,ComponentPad*%
%ADD10O,2.000000X1.000000*%
%TD*%
%TA.AperFunction,ComponentPad*%
%ADD11O,2.100000X1.050000*%
%TD*%
%TA.AperFunction,SMDPad,CuDef*%
%ADD12R,1.150000X0.600000*%
%TD*%
%TA.AperFunction,SMDPad,CuDef*%
%ADD13R,1.150000X0.300000*%
%TD*%
%TA.AperFunction,ComponentPad*%
%ADD14C,4.400000*%
%TD*%
%TA.AperFunction,SMDPad,CuDef*%
%ADD15R,1.524000X3.000000*%
%TD*%
%TA.AperFunction,ViaPad*%
%ADD16C,0.800000*%
%TD*%
%TA.AperFunction,Conductor*%
%ADD17C,0.250000*%
%TD*%
%TA.AperFunction,Conductor*%
%ADD18C,0.600000*%
%TD*%
%TA.AperFunction,Conductor*%
%ADD19C,0.254000*%
%TD*%
%TA.AperFunction,Conductor*%
%ADD20C,0.100000*%
%TD*%
G04 APERTURE END LIST*
D10*
%TO.P,J1,G1*%
%TO.N,GND*%
X131100000Y-64198000D03*
%TO.P,J1,G2*%
X131100000Y-72838000D03*
D11*
%TO.P,J1,G3*%
X135280000Y-64198000D03*
%TO.P,J1,G4*%
X135280000Y-72838000D03*
D12*
%TO.P,J1,A1/B12*%
X135855000Y-65318000D03*
%TO.P,J1,B1/A12*%
X135855000Y-71718000D03*
%TO.P,J1,A4/B9*%
%TO.N,Net-(J1-PadA4/B9)*%
X135855000Y-66118000D03*
%TO.P,J1,B4/A9*%
X135855000Y-70918000D03*
D13*
%TO.P,J1,A7*%
%TO.N,Net-(J1-PadA7)*%
X135855000Y-68768000D03*
%TO.P,J1,A6*%
%TO.N,Net-(J1-PadA6)*%
X135855000Y-68268000D03*
%TO.P,J1,B6*%
X135855000Y-69268000D03*
%TO.P,J1,A8*%
%TO.N,Net-(J1-PadA8)*%
X135855000Y-69768000D03*
%TO.P,J1,B5*%
%TO.N,Net-(J1-PadB5)*%
X135855000Y-70268000D03*
%TO.P,J1,B7*%
%TO.N,Net-(J1-PadA7)*%
X135855000Y-67768000D03*
%TO.P,J1,A5*%
%TO.N,Net-(J1-PadA5)*%
X135855000Y-67268000D03*
%TO.P,J1,B8*%
%TO.N,Net-(J1-PadB8)*%
X135855000Y-66768000D03*
%TD*%
D14*
%TO.P,H2,1*%
%TO.N,GND*%
X132937000Y-53492500D03*
%TD*%
%TO.P,H1,1*%
%TO.N,GND*%
X143732000Y-53492500D03*
%TD*%
%TO.P,H4,1*%
%TO.N,GND*%
X143732000Y-89306500D03*
%TD*%
%TO.P,H3,1*%
%TO.N,GND*%
X132937000Y-89306500D03*
%TD*%
D15*
%TO.P,J2_5,1*%
%TO.N,GND*%
X132000000Y-80500000D03*
%TD*%
%TO.P,J2_4,1*%
%TO.N,GND*%
X135000000Y-80500000D03*
%TD*%
%TO.P,J2_3,1*%
%TO.N,Net-(J1-PadA6)*%
X138000000Y-80500000D03*
%TD*%
%TO.P,J2_2,1*%
%TO.N,Net-(J1-PadA7)*%
X141000000Y-80500000D03*
%TD*%
%TO.P,J2_1,1*%
%TO.N,Net-(J1-PadA4/B9)*%
X144000000Y-80500000D03*
%TD*%
%TO.P,R2,2*%
%TO.N,GND*%
%TA.AperFunction,SMDPad,CuDef*%
G36*
G01*
X140559999Y-71460000D02*
X141460001Y-71460000D01*
G75*
G02*
X141710000Y-71709999I0J-249999D01*
G01*
X141710000Y-72410001D01*
G75*
G02*
X141460001Y-72660000I-249999J0D01*
G01*
X140559999Y-72660000D01*
G75*
G02*
X140310000Y-72410001I0J249999D01*
G01*
X140310000Y-71709999D01*
G75*
G02*
X140559999Y-71460000I249999J0D01*
G01*
G37*
%TD.AperFunction*%
%TO.P,R2,1*%
%TO.N,Net-(J1-PadB5)*%
%TA.AperFunction,SMDPad,CuDef*%
G36*
G01*
X140559999Y-69460000D02*
X141460001Y-69460000D01*
G75*
G02*
X141710000Y-69709999I0J-249999D01*
G01*
X141710000Y-70410001D01*
G75*
G02*
X141460001Y-70660000I-249999J0D01*
G01*
X140559999Y-70660000D01*
G75*
G02*
X140310000Y-70410001I0J249999D01*
G01*
X140310000Y-69709999D01*
G75*
G02*
X140559999Y-69460000I249999J0D01*
G01*
G37*
%TD.AperFunction*%
%TD*%
%TO.P,R1,2*%
%TO.N,GND*%
%TA.AperFunction,SMDPad,CuDef*%
G36*
G01*
X141460001Y-65800000D02*
X140559999Y-65800000D01*
G75*
G02*
X140310000Y-65550001I0J249999D01*
G01*
X140310000Y-64849999D01*
G75*
G02*
X140559999Y-64600000I249999J0D01*
G01*
X141460001Y-64600000D01*
G75*
G02*
X141710000Y-64849999I0J-249999D01*
G01*
X141710000Y-65550001D01*
G75*
G02*
X141460001Y-65800000I-249999J0D01*
G01*
G37*
%TD.AperFunction*%
%TO.P,R1,1*%
%TO.N,Net-(J1-PadA5)*%
%TA.AperFunction,SMDPad,CuDef*%
G36*
G01*
X141460001Y-67800000D02*
X140559999Y-67800000D01*
G75*
G02*
X140310000Y-67550001I0J249999D01*
G01*
X140310000Y-66849999D01*
G75*
G02*
X140559999Y-66600000I249999J0D01*
G01*
X141460001Y-66600000D01*
G75*
G02*
X141710000Y-66849999I0J-249999D01*
G01*
X141710000Y-67550001D01*
G75*
G02*
X141460001Y-67800000I-249999J0D01*
G01*
G37*
%TD.AperFunction*%
%TD*%
D16*
%TO.N,Net-(J1-PadA4/B9)*%
X137610000Y-70968001D03*
X144010000Y-66110000D03*
X137630000Y-66110000D03*
X143978001Y-70968001D03*
%TD*%
D17*
%TO.N,Net-(J1-PadA5)*%
X140942000Y-67268000D02*
X136185000Y-67268000D01*
X141010000Y-67200000D02*
X140942000Y-67268000D01*
%TO.N,Net-(J1-PadA7)*%
X136995002Y-67768000D02*
X136185000Y-67768000D01*
X137467002Y-68240000D02*
X136995002Y-67768000D01*
X137460000Y-68240000D02*
X136932000Y-68768000D01*
X136932000Y-68768000D02*
X136185000Y-68768000D01*
X137467002Y-68240000D02*
X137460000Y-68240000D01*
X141000000Y-77040000D02*
X141000000Y-80500000D01*
X143150000Y-74890000D02*
X141000000Y-77040000D01*
X141996410Y-68240000D02*
X143150000Y-69393590D01*
X137467002Y-68240000D02*
X141996410Y-68240000D01*
X143150000Y-74890000D02*
X143150000Y-69393590D01*
%TO.N,Net-(J1-PadA6)*%
X142390000Y-69270000D02*
X141810010Y-68690010D01*
X138000000Y-78430000D02*
X142390000Y-74040000D01*
X141810010Y-68690010D02*
X139035990Y-68690010D01*
X138000000Y-80500000D02*
X138000000Y-78430000D01*
X139035990Y-68690010D02*
X138458000Y-69268000D01*
X136185000Y-69268000D02*
X138458000Y-69268000D01*
X142390000Y-74040000D02*
X142390000Y-69270000D01*
X135044998Y-68268000D02*
X135855000Y-68268000D01*
X134954999Y-68357999D02*
X135044998Y-68268000D01*
X134954999Y-69178001D02*
X134954999Y-68357999D01*
X135044998Y-69268000D02*
X134954999Y-69178001D01*
X135855000Y-69268000D02*
X135044998Y-69268000D01*
%TO.N,Net-(J1-PadB5)*%
X136396999Y-70243001D02*
X140826999Y-70243001D01*
X140826999Y-70243001D02*
X141010000Y-70060000D01*
X136372000Y-70268000D02*
X136396999Y-70243001D01*
X136185000Y-70268000D02*
X136372000Y-70268000D01*
%TO.N,GND*%
X136192000Y-71560000D02*
X136185000Y-71553000D01*
D18*
X136185000Y-65318000D02*
X137062000Y-65318000D01*
X137062000Y-65318000D02*
X137660000Y-64720000D01*
X136185000Y-71718000D02*
X136878000Y-71718000D01*
X136878000Y-71718000D02*
X137830000Y-72670000D01*
D17*
%TO.N,Net-(J1-PadA4/B9)*%
X144000000Y-74630000D02*
X143910000Y-74540000D01*
D18*
X144000000Y-80500000D02*
X144000000Y-74630000D01*
X137559999Y-70918000D02*
X137610000Y-70968001D01*
X136185000Y-70918000D02*
X137559999Y-70918000D01*
X137622000Y-66118000D02*
X137630000Y-66110000D01*
X136185000Y-66118000D02*
X137622000Y-66118000D01*
X144000000Y-66120000D02*
X144010000Y-66110000D01*
X144000000Y-74630000D02*
X144000000Y-66120000D01*
%TD*%
D19*
%TO.N,GND*%
X145469001Y-90599000D02*
X130660000Y-90599000D01*
X130660000Y-82265698D01*
X130707463Y-82354494D01*
X130786815Y-82451185D01*
X130883506Y-82530537D01*
X130993820Y-82589502D01*
X131113518Y-82625812D01*
X131238000Y-82638072D01*
X131714250Y-82635000D01*
X131873000Y-82476250D01*
X131873000Y-80627000D01*
X132127000Y-80627000D01*
X132127000Y-82476250D01*
X132285750Y-82635000D01*
X132762000Y-82638072D01*
X132886482Y-82625812D01*
X133006180Y-82589502D01*
X133116494Y-82530537D01*
X133213185Y-82451185D01*
X133292537Y-82354494D01*
X133351502Y-82244180D01*
X133387812Y-82124482D01*
X133400072Y-82000000D01*
X133599928Y-82000000D01*
X133612188Y-82124482D01*
X133648498Y-82244180D01*
X133707463Y-82354494D01*
X133786815Y-82451185D01*
X133883506Y-82530537D01*
X133993820Y-82589502D01*
X134113518Y-82625812D01*
X134238000Y-82638072D01*
X134714250Y-82635000D01*
X134873000Y-82476250D01*
X134873000Y-80627000D01*
X135127000Y-80627000D01*
X135127000Y-82476250D01*
X135285750Y-82635000D01*
X135762000Y-82638072D01*
X135886482Y-82625812D01*
X136006180Y-82589502D01*
X136116494Y-82530537D01*
X136213185Y-82451185D01*
X136292537Y-82354494D01*
X136351502Y-82244180D01*
X136387812Y-82124482D01*
X136400072Y-82000000D01*
X136397000Y-80785750D01*
X136238250Y-80627000D01*
X135127000Y-80627000D01*
X134873000Y-80627000D01*
X133761750Y-80627000D01*
X133603000Y-80785750D01*
X133599928Y-82000000D01*
X133400072Y-82000000D01*
X133397000Y-80785750D01*
X133238250Y-80627000D01*
X132127000Y-80627000D01*
X131873000Y-80627000D01*
X131853000Y-80627000D01*
X131853000Y-80373000D01*
X131873000Y-80373000D01*
X131873000Y-78523750D01*
X132127000Y-78523750D01*
X132127000Y-80373000D01*
X133238250Y-80373000D01*
X133397000Y-80214250D01*
X133400072Y-79000000D01*
X133599928Y-79000000D01*
X133603000Y-80214250D01*
X133761750Y-80373000D01*
X134873000Y-80373000D01*
X134873000Y-78523750D01*
X135127000Y-78523750D01*
X135127000Y-80373000D01*
X136238250Y-80373000D01*
X136397000Y-80214250D01*
X136400072Y-79000000D01*
X136387812Y-78875518D01*
X136351502Y-78755820D01*
X136292537Y-78645506D01*
X136213185Y-78548815D01*
X136116494Y-78469463D01*
X136006180Y-78410498D01*
X135886482Y-78374188D01*
X135762000Y-78361928D01*
X135285750Y-78365000D01*
X135127000Y-78523750D01*
X134873000Y-78523750D01*
X134714250Y-78365000D01*
X134238000Y-78361928D01*
X134113518Y-78374188D01*
X133993820Y-78410498D01*
X133883506Y-78469463D01*
X133786815Y-78548815D01*
X133707463Y-78645506D01*
X133648498Y-78755820D01*
X133612188Y-78875518D01*
X133599928Y-79000000D01*
X133400072Y-79000000D01*
X133387812Y-78875518D01*
X133351502Y-78755820D01*
X133292537Y-78645506D01*
X133213185Y-78548815D01*
X133116494Y-78469463D01*
X133006180Y-78410498D01*
X132886482Y-78374188D01*
X132762000Y-78361928D01*
X132285750Y-78365000D01*
X132127000Y-78523750D01*
X131873000Y-78523750D01*
X131714250Y-78365000D01*
X131238000Y-78361928D01*
X131113518Y-78374188D01*
X130993820Y-78410498D01*
X130883506Y-78469463D01*
X130786815Y-78548815D01*
X130707463Y-78645506D01*
X130660000Y-78734302D01*
X130660000Y-73973000D01*
X130973000Y-73973000D01*
X130973000Y-72965000D01*
X131227000Y-72965000D01*
X131227000Y-73973000D01*
X131727000Y-73973000D01*
X131945987Y-73926415D01*
X132151678Y-73838003D01*
X132336169Y-73711161D01*
X132492369Y-73550764D01*
X132614276Y-73362976D01*
X132692710Y-73143810D01*
X133636036Y-73143810D01*
X133719937Y-73376864D01*
X133844953Y-73568441D01*
X134004941Y-73731947D01*
X134193754Y-73861099D01*
X134404135Y-73950934D01*
X134628000Y-73998000D01*
X135153000Y-73998000D01*
X135153000Y-72965000D01*
X135407000Y-72965000D01*
X135407000Y-73998000D01*
X135932000Y-73998000D01*
X136155865Y-73950934D01*
X136366246Y-73861099D01*
X136555059Y-73731947D01*
X136715047Y-73568441D01*
X136840063Y-73376864D01*
X136923964Y-73143810D01*
X136798163Y-72965000D01*
X135407000Y-72965000D01*
X135153000Y-72965000D01*
X133761837Y-72965000D01*
X133636036Y-73143810D01*
X132692710Y-73143810D01*
X132694119Y-73139874D01*
X132567954Y-72965000D01*
X131227000Y-72965000D01*
X130973000Y-72965000D01*
X130953000Y-72965000D01*
X130953000Y-72711000D01*
X130973000Y-72711000D01*
X130973000Y-71703000D01*
X131227000Y-71703000D01*
X131227000Y-72711000D01*
X132567954Y-72711000D01*
X132694119Y-72536126D01*
X132614276Y-72313024D01*
X132492369Y-72125236D01*
X132336169Y-71964839D01*
X132151678Y-71837997D01*
X131945987Y-71749585D01*
X131727000Y-71703000D01*
X131227000Y-71703000D01*
X130973000Y-71703000D01*
X130660000Y-71703000D01*
X130660000Y-65333000D01*
X130973000Y-65333000D01*
X130973000Y-64325000D01*
X131227000Y-64325000D01*
X131227000Y-65333000D01*
X131727000Y-65333000D01*
X131945987Y-65286415D01*
X132151678Y-65198003D01*
X132336169Y-65071161D01*
X132492369Y-64910764D01*
X132614276Y-64722976D01*
X132692710Y-64503810D01*
X133636036Y-64503810D01*
X133719937Y-64736864D01*
X133844953Y-64928441D01*
X133992258Y-65078985D01*
X133929259Y-65173269D01*
X133856892Y-65347978D01*
X133820000Y-65533448D01*
X133820000Y-65722552D01*
X133856892Y-65908022D01*
X133929259Y-66082731D01*
X134034319Y-66239964D01*
X134168036Y-66373681D01*
X134325269Y-66478741D01*
X134499978Y-66551108D01*
X134645662Y-66580086D01*
X134641928Y-66618000D01*
X134641928Y-66918000D01*
X134651777Y-67018000D01*
X134641928Y-67118000D01*
X134641928Y-67418000D01*
X134651777Y-67518000D01*
X134641928Y-67618000D01*
X134641928Y-67621691D01*
X134620722Y-67633026D01*
X134504997Y-67727999D01*
X134481194Y-67757003D01*
X134443997Y-67794200D01*
X134414999Y-67817998D01*
X134391201Y-67846996D01*
X134391200Y-67846997D01*
X134320025Y-67933723D01*
X134249453Y-68065753D01*
X134233605Y-68118000D01*
X134205997Y-68209013D01*
X134194999Y-68320666D01*
X134194999Y-68320677D01*
X134191323Y-68357999D01*
X134194999Y-68395321D01*
X134194999Y-69140679D01*
X134191323Y-69178001D01*
X134194999Y-69215323D01*
X134194999Y-69215333D01*
X134205996Y-69326986D01*
X134243314Y-69450010D01*
X134249453Y-69470247D01*
X134320025Y-69602277D01*
X134359870Y-69650827D01*
X134414998Y-69718002D01*
X134444002Y-69741805D01*
X134481194Y-69778997D01*
X134504997Y-69808001D01*
X134620722Y-69902974D01*
X134641928Y-69914309D01*
X134641928Y-69918000D01*
X134651777Y-70018000D01*
X134641928Y-70118000D01*
X134641928Y-70418000D01*
X134645662Y-70455914D01*
X134499978Y-70484892D01*
X134325269Y-70557259D01*
X134168036Y-70662319D01*
X134034319Y-70796036D01*
X133929259Y-70953269D01*
X133856892Y-71127978D01*
X133820000Y-71313448D01*
X133820000Y-71502552D01*
X133856892Y-71688022D01*
X133929259Y-71862731D01*
X133992258Y-71957015D01*
X133844953Y-72107559D01*
X133719937Y-72299136D01*
X133636036Y-72532190D01*
X133761837Y-72711000D01*
X135153000Y-72711000D01*
X135153000Y-72691000D01*
X135407000Y-72691000D01*
X135407000Y-72711000D01*
X136798163Y-72711000D01*
X136834043Y-72660000D01*
X139671928Y-72660000D01*
X139684188Y-72784482D01*
X139720498Y-72904180D01*
X139779463Y-73014494D01*
X139858815Y-73111185D01*
X139955506Y-73190537D01*
X140065820Y-73249502D01*
X140185518Y-73285812D01*
X140310000Y-73298072D01*
X140724250Y-73295000D01*
X140883000Y-73136250D01*
X140883000Y-72187000D01*
X139833750Y-72187000D01*
X139675000Y-72345750D01*
X139671928Y-72660000D01*
X136834043Y-72660000D01*
X136923964Y-72532190D01*
X136895154Y-72452164D01*
X136960537Y-72372494D01*
X137019502Y-72262180D01*
X137055812Y-72142482D01*
X137068072Y-72018000D01*
X137065000Y-72003750D01*
X136914250Y-71853000D01*
X137071544Y-71853000D01*
X137119744Y-71885206D01*
X137308102Y-71963227D01*
X137508061Y-72003001D01*
X137711939Y-72003001D01*
X137911898Y-71963227D01*
X138100256Y-71885206D01*
X138269774Y-71771938D01*
X138413937Y-71627775D01*
X138527205Y-71458257D01*
X138605226Y-71269899D01*
X138645000Y-71069940D01*
X138645000Y-71003001D01*
X139865899Y-71003001D01*
X139858815Y-71008815D01*
X139779463Y-71105506D01*
X139720498Y-71215820D01*
X139684188Y-71335518D01*
X139671928Y-71460000D01*
X139675000Y-71774250D01*
X139833750Y-71933000D01*
X140883000Y-71933000D01*
X140883000Y-71913000D01*
X141137000Y-71913000D01*
X141137000Y-71933000D01*
X141157000Y-71933000D01*
X141157000Y-72187000D01*
X141137000Y-72187000D01*
X141137000Y-73136250D01*
X141295750Y-73295000D01*
X141630000Y-73297479D01*
X141630000Y-73725198D01*
X137488998Y-77866201D01*
X137460000Y-77889999D01*
X137436202Y-77918997D01*
X137436201Y-77918998D01*
X137365026Y-78005724D01*
X137294454Y-78137754D01*
X137250998Y-78281015D01*
X137243029Y-78361928D01*
X137238000Y-78361928D01*
X137113518Y-78374188D01*
X136993820Y-78410498D01*
X136883506Y-78469463D01*
X136786815Y-78548815D01*
X136707463Y-78645506D01*
X136648498Y-78755820D01*
X136612188Y-78875518D01*
X136599928Y-79000000D01*
X136599928Y-82000000D01*
X136612188Y-82124482D01*
X136648498Y-82244180D01*
X136707463Y-82354494D01*
X136786815Y-82451185D01*
X136883506Y-82530537D01*
X136993820Y-82589502D01*
X137113518Y-82625812D01*
X137238000Y-82638072D01*
X138762000Y-82638072D01*
X138886482Y-82625812D01*
X139006180Y-82589502D01*
X139116494Y-82530537D01*
X139213185Y-82451185D01*
X139292537Y-82354494D01*
X139351502Y-82244180D01*
X139387812Y-82124482D01*
X139400072Y-82000000D01*
X139400072Y-79000000D01*
X139387812Y-78875518D01*
X139351502Y-78755820D01*
X139292537Y-78645506D01*
X139213185Y-78548815D01*
X139116494Y-78469463D01*
X139063607Y-78441194D01*
X140240000Y-77264801D01*
X140240000Y-78361928D01*
X140238000Y-78361928D01*
X140113518Y-78374188D01*
X139993820Y-78410498D01*
X139883506Y-78469463D01*
X139786815Y-78548815D01*
X139707463Y-78645506D01*
X139648498Y-78755820D01*
X139612188Y-78875518D01*
X139599928Y-79000000D01*
X139599928Y-82000000D01*
X139612188Y-82124482D01*
X139648498Y-82244180D01*
X139707463Y-82354494D01*
X139786815Y-82451185D01*
X139883506Y-82530537D01*
X139993820Y-82589502D01*
X140113518Y-82625812D01*
X140238000Y-82638072D01*
X141762000Y-82638072D01*
X141886482Y-82625812D01*
X142006180Y-82589502D01*
X142116494Y-82530537D01*
X142213185Y-82451185D01*
X142292537Y-82354494D01*
X142351502Y-82244180D01*
X142387812Y-82124482D01*
X142400072Y-82000000D01*
X142400072Y-79000000D01*
X142387812Y-78875518D01*
X142351502Y-78755820D01*
X142292537Y-78645506D01*
X142213185Y-78548815D01*
X142116494Y-78469463D01*
X142006180Y-78410498D01*
X141886482Y-78374188D01*
X141762000Y-78361928D01*
X141760000Y-78361928D01*
X141760000Y-77354801D01*
X143065001Y-76049801D01*
X143065000Y-78388906D01*
X142993820Y-78410498D01*
X142883506Y-78469463D01*
X142786815Y-78548815D01*
X142707463Y-78645506D01*
X142648498Y-78755820D01*
X142612188Y-78875518D01*
X142599928Y-79000000D01*
X142599928Y-82000000D01*
X142612188Y-82124482D01*
X142648498Y-82244180D01*
X142707463Y-82354494D01*
X142786815Y-82451185D01*
X142883506Y-82530537D01*
X142993820Y-82589502D01*
X143113518Y-82625812D01*
X143238000Y-82638072D01*
X144762000Y-82638072D01*
X144886482Y-82625812D01*
X145006180Y-82589502D01*
X145116494Y-82530537D01*
X145213185Y-82451185D01*
X145292537Y-82354494D01*
X145351502Y-82244180D01*
X145387812Y-82124482D01*
X145400072Y-82000000D01*
X145400072Y-79000000D01*
X145387812Y-78875518D01*
X145351502Y-78755820D01*
X145292537Y-78645506D01*
X145213185Y-78548815D01*
X145116494Y-78469463D01*
X145006180Y-78410498D01*
X144935000Y-78388906D01*
X144935000Y-71362186D01*
X144973227Y-71269899D01*
X145013001Y-71069940D01*
X145013001Y-70866062D01*
X144973227Y-70666103D01*
X144935000Y-70573816D01*
X144935000Y-66581437D01*
X145005226Y-66411898D01*
X145045000Y-66211939D01*
X145045000Y-66008061D01*
X145005226Y-65808102D01*
X144927205Y-65619744D01*
X144813937Y-65450226D01*
X144669774Y-65306063D01*
X144500256Y-65192795D01*
X144311898Y-65114774D01*
X144111939Y-65075000D01*
X143908061Y-65075000D01*
X143708102Y-65114774D01*
X143519744Y-65192795D01*
X143350226Y-65306063D01*
X143206063Y-65450226D01*
X143092795Y-65619744D01*
X143014774Y-65808102D01*
X142975000Y-66008061D01*
X142975000Y-66211939D01*
X143014774Y-66411898D01*
X143065001Y-66533156D01*
X143065001Y-68233789D01*
X142560214Y-67729003D01*
X142536411Y-67699999D01*
X142420686Y-67605026D01*
X142346555Y-67565402D01*
X142348072Y-67550001D01*
X142348072Y-66849999D01*
X142331008Y-66676745D01*
X142280472Y-66510149D01*
X142198405Y-66356613D01*
X142131724Y-66275363D01*
X142161185Y-66251185D01*
X142240537Y-66154494D01*
X142299502Y-66044180D01*
X142335812Y-65924482D01*
X142348072Y-65800000D01*
X142345000Y-65485750D01*
X142186250Y-65327000D01*
X141137000Y-65327000D01*
X141137000Y-65347000D01*
X140883000Y-65347000D01*
X140883000Y-65327000D01*
X139833750Y-65327000D01*
X139675000Y-65485750D01*
X139671928Y-65800000D01*
X139684188Y-65924482D01*
X139720498Y-66044180D01*
X139779463Y-66154494D01*
X139858815Y-66251185D01*
X139888276Y-66275363D01*
X139821595Y-66356613D01*
X139740677Y-66508000D01*
X138585419Y-66508000D01*
X138625226Y-66411898D01*
X138665000Y-66211939D01*
X138665000Y-66008061D01*
X138625226Y-65808102D01*
X138547205Y-65619744D01*
X138433937Y-65450226D01*
X138289774Y-65306063D01*
X138120256Y-65192795D01*
X137931898Y-65114774D01*
X137731939Y-65075000D01*
X137528061Y-65075000D01*
X137328102Y-65114774D01*
X137163391Y-65183000D01*
X136914250Y-65183000D01*
X137065000Y-65032250D01*
X137068072Y-65018000D01*
X137055812Y-64893518D01*
X137019502Y-64773820D01*
X136960537Y-64663506D01*
X136908420Y-64600000D01*
X139671928Y-64600000D01*
X139675000Y-64914250D01*
X139833750Y-65073000D01*
X140883000Y-65073000D01*
X140883000Y-64123750D01*
X141137000Y-64123750D01*
X141137000Y-65073000D01*
X142186250Y-65073000D01*
X142345000Y-64914250D01*
X142348072Y-64600000D01*
X142335812Y-64475518D01*
X142299502Y-64355820D01*
X142240537Y-64245506D01*
X142161185Y-64148815D01*
X142064494Y-64069463D01*
X141954180Y-64010498D01*
X141834482Y-63974188D01*
X141710000Y-63961928D01*
X141295750Y-63965000D01*
X141137000Y-64123750D01*
X140883000Y-64123750D01*
X140724250Y-63965000D01*
X140310000Y-63961928D01*
X140185518Y-63974188D01*
X140065820Y-64010498D01*
X139955506Y-64069463D01*
X139858815Y-64148815D01*
X139779463Y-64245506D01*
X139720498Y-64355820D01*
X139684188Y-64475518D01*
X139671928Y-64600000D01*
X136908420Y-64600000D01*
X136895154Y-64583836D01*
X136923964Y-64503810D01*
X136798163Y-64325000D01*
X135407000Y-64325000D01*
X135407000Y-64345000D01*
X135153000Y-64345000D01*
X135153000Y-64325000D01*
X133761837Y-64325000D01*
X133636036Y-64503810D01*
X132692710Y-64503810D01*
X132694119Y-64499874D01*
X132567954Y-64325000D01*
X131227000Y-64325000D01*
X130973000Y-64325000D01*
X130953000Y-64325000D01*
X130953000Y-64071000D01*
X130973000Y-64071000D01*
X130973000Y-63063000D01*
X131227000Y-63063000D01*
X131227000Y-64071000D01*
X132567954Y-64071000D01*
X132694119Y-63896126D01*
X132692711Y-63892190D01*
X133636036Y-63892190D01*
X133761837Y-64071000D01*
X135153000Y-64071000D01*
X135153000Y-63038000D01*
X135407000Y-63038000D01*
X135407000Y-64071000D01*
X136798163Y-64071000D01*
X136923964Y-63892190D01*
X136840063Y-63659136D01*
X136715047Y-63467559D01*
X136555059Y-63304053D01*
X136366246Y-63174901D01*
X136155865Y-63085066D01*
X135932000Y-63038000D01*
X135407000Y-63038000D01*
X135153000Y-63038000D01*
X134628000Y-63038000D01*
X134404135Y-63085066D01*
X134193754Y-63174901D01*
X134004941Y-63304053D01*
X133844953Y-63467559D01*
X133719937Y-63659136D01*
X133636036Y-63892190D01*
X132692711Y-63892190D01*
X132614276Y-63673024D01*
X132492369Y-63485236D01*
X132336169Y-63324839D01*
X132151678Y-63197997D01*
X131945987Y-63109585D01*
X131727000Y-63063000D01*
X131227000Y-63063000D01*
X130973000Y-63063000D01*
X130660000Y-63063000D01*
X130660000Y-52200000D01*
X145469000Y-52200000D01*
X145469001Y-90599000D01*
%TA.AperFunction,Conductor*%
D20*
G36*
X145469001Y-90599000D02*
G01*
X130660000Y-90599000D01*
X130660000Y-82265698D01*
X130707463Y-82354494D01*
X130786815Y-82451185D01*
X130883506Y-82530537D01*
X130993820Y-82589502D01*
X131113518Y-82625812D01*
X131238000Y-82638072D01*
X131714250Y-82635000D01*
X131873000Y-82476250D01*
X131873000Y-80627000D01*
X132127000Y-80627000D01*
X132127000Y-82476250D01*
X132285750Y-82635000D01*
X132762000Y-82638072D01*
X132886482Y-82625812D01*
X133006180Y-82589502D01*
X133116494Y-82530537D01*
X133213185Y-82451185D01*
X133292537Y-82354494D01*
X133351502Y-82244180D01*
X133387812Y-82124482D01*
X133400072Y-82000000D01*
X133599928Y-82000000D01*
X133612188Y-82124482D01*
X133648498Y-82244180D01*
X133707463Y-82354494D01*
X133786815Y-82451185D01*
X133883506Y-82530537D01*
X133993820Y-82589502D01*
X134113518Y-82625812D01*
X134238000Y-82638072D01*
X134714250Y-82635000D01*
X134873000Y-82476250D01*
X134873000Y-80627000D01*
X135127000Y-80627000D01*
X135127000Y-82476250D01*
X135285750Y-82635000D01*
X135762000Y-82638072D01*
X135886482Y-82625812D01*
X136006180Y-82589502D01*
X136116494Y-82530537D01*
X136213185Y-82451185D01*
X136292537Y-82354494D01*
X136351502Y-82244180D01*
X136387812Y-82124482D01*
X136400072Y-82000000D01*
X136397000Y-80785750D01*
X136238250Y-80627000D01*
X135127000Y-80627000D01*
X134873000Y-80627000D01*
X133761750Y-80627000D01*
X133603000Y-80785750D01*
X133599928Y-82000000D01*
X133400072Y-82000000D01*
X133397000Y-80785750D01*
X133238250Y-80627000D01*
X132127000Y-80627000D01*
X131873000Y-80627000D01*
X131853000Y-80627000D01*
X131853000Y-80373000D01*
X131873000Y-80373000D01*
X131873000Y-78523750D01*
X132127000Y-78523750D01*
X132127000Y-80373000D01*
X133238250Y-80373000D01*
X133397000Y-80214250D01*
X133400072Y-79000000D01*
X133599928Y-79000000D01*
X133603000Y-80214250D01*
X133761750Y-80373000D01*
X134873000Y-80373000D01*
X134873000Y-78523750D01*
X135127000Y-78523750D01*
X135127000Y-80373000D01*
X136238250Y-80373000D01*
X136397000Y-80214250D01*
X136400072Y-79000000D01*
X136387812Y-78875518D01*
X136351502Y-78755820D01*
X136292537Y-78645506D01*
X136213185Y-78548815D01*
X136116494Y-78469463D01*
X136006180Y-78410498D01*
X135886482Y-78374188D01*
X135762000Y-78361928D01*
X135285750Y-78365000D01*
X135127000Y-78523750D01*
X134873000Y-78523750D01*
X134714250Y-78365000D01*
X134238000Y-78361928D01*
X134113518Y-78374188D01*
X133993820Y-78410498D01*
X133883506Y-78469463D01*
X133786815Y-78548815D01*
X133707463Y-78645506D01*
X133648498Y-78755820D01*
X133612188Y-78875518D01*
X133599928Y-79000000D01*
X133400072Y-79000000D01*
X133387812Y-78875518D01*
X133351502Y-78755820D01*
X133292537Y-78645506D01*
X133213185Y-78548815D01*
X133116494Y-78469463D01*
X133006180Y-78410498D01*
X132886482Y-78374188D01*
X132762000Y-78361928D01*
X132285750Y-78365000D01*
X132127000Y-78523750D01*
X131873000Y-78523750D01*
X131714250Y-78365000D01*
X131238000Y-78361928D01*
X131113518Y-78374188D01*
X130993820Y-78410498D01*
X130883506Y-78469463D01*
X130786815Y-78548815D01*
X130707463Y-78645506D01*
X130660000Y-78734302D01*
X130660000Y-73973000D01*
X130973000Y-73973000D01*
X130973000Y-72965000D01*
X131227000Y-72965000D01*
X131227000Y-73973000D01*
X131727000Y-73973000D01*
X131945987Y-73926415D01*
X132151678Y-73838003D01*
X132336169Y-73711161D01*
X132492369Y-73550764D01*
X132614276Y-73362976D01*
X132692710Y-73143810D01*
X133636036Y-73143810D01*
X133719937Y-73376864D01*
X133844953Y-73568441D01*
X134004941Y-73731947D01*
X134193754Y-73861099D01*
X134404135Y-73950934D01*
X134628000Y-73998000D01*
X135153000Y-73998000D01*
X135153000Y-72965000D01*
X135407000Y-72965000D01*
X135407000Y-73998000D01*
X135932000Y-73998000D01*
X136155865Y-73950934D01*
X136366246Y-73861099D01*
X136555059Y-73731947D01*
X136715047Y-73568441D01*
X136840063Y-73376864D01*
X136923964Y-73143810D01*
X136798163Y-72965000D01*
X135407000Y-72965000D01*
X135153000Y-72965000D01*
X133761837Y-72965000D01*
X133636036Y-73143810D01*
X132692710Y-73143810D01*
X132694119Y-73139874D01*
X132567954Y-72965000D01*
X131227000Y-72965000D01*
X130973000Y-72965000D01*
X130953000Y-72965000D01*
X130953000Y-72711000D01*
X130973000Y-72711000D01*
X130973000Y-71703000D01*
X131227000Y-71703000D01*
X131227000Y-72711000D01*
X132567954Y-72711000D01*
X132694119Y-72536126D01*
X132614276Y-72313024D01*
X132492369Y-72125236D01*
X132336169Y-71964839D01*
X132151678Y-71837997D01*
X131945987Y-71749585D01*
X131727000Y-71703000D01*
X131227000Y-71703000D01*
X130973000Y-71703000D01*
X130660000Y-71703000D01*
X130660000Y-65333000D01*
X130973000Y-65333000D01*
X130973000Y-64325000D01*
X131227000Y-64325000D01*
X131227000Y-65333000D01*
X131727000Y-65333000D01*
X131945987Y-65286415D01*
X132151678Y-65198003D01*
X132336169Y-65071161D01*
X132492369Y-64910764D01*
X132614276Y-64722976D01*
X132692710Y-64503810D01*
X133636036Y-64503810D01*
X133719937Y-64736864D01*
X133844953Y-64928441D01*
X133992258Y-65078985D01*
X133929259Y-65173269D01*
X133856892Y-65347978D01*
X133820000Y-65533448D01*
X133820000Y-65722552D01*
X133856892Y-65908022D01*
X133929259Y-66082731D01*
X134034319Y-66239964D01*
X134168036Y-66373681D01*
X134325269Y-66478741D01*
X134499978Y-66551108D01*
X134645662Y-66580086D01*
X134641928Y-66618000D01*
X134641928Y-66918000D01*
X134651777Y-67018000D01*
X134641928Y-67118000D01*
X134641928Y-67418000D01*
X134651777Y-67518000D01*
X134641928Y-67618000D01*
X134641928Y-67621691D01*
X134620722Y-67633026D01*
X134504997Y-67727999D01*
X134481194Y-67757003D01*
X134443997Y-67794200D01*
X134414999Y-67817998D01*
X134391201Y-67846996D01*
X134391200Y-67846997D01*
X134320025Y-67933723D01*
X134249453Y-68065753D01*
X134233605Y-68118000D01*
X134205997Y-68209013D01*
X134194999Y-68320666D01*
X134194999Y-68320677D01*
X134191323Y-68357999D01*
X134194999Y-68395321D01*
X134194999Y-69140679D01*
X134191323Y-69178001D01*
X134194999Y-69215323D01*
X134194999Y-69215333D01*
X134205996Y-69326986D01*
X134243314Y-69450010D01*
X134249453Y-69470247D01*
X134320025Y-69602277D01*
X134359870Y-69650827D01*
X134414998Y-69718002D01*
X134444002Y-69741805D01*
X134481194Y-69778997D01*
X134504997Y-69808001D01*
X134620722Y-69902974D01*
X134641928Y-69914309D01*
X134641928Y-69918000D01*
X134651777Y-70018000D01*
X134641928Y-70118000D01*
X134641928Y-70418000D01*
X134645662Y-70455914D01*
X134499978Y-70484892D01*
X134325269Y-70557259D01*
X134168036Y-70662319D01*
X134034319Y-70796036D01*
X133929259Y-70953269D01*
X133856892Y-71127978D01*
X133820000Y-71313448D01*
X133820000Y-71502552D01*
X133856892Y-71688022D01*
X133929259Y-71862731D01*
X133992258Y-71957015D01*
X133844953Y-72107559D01*
X133719937Y-72299136D01*
X133636036Y-72532190D01*
X133761837Y-72711000D01*
X135153000Y-72711000D01*
X135153000Y-72691000D01*
X135407000Y-72691000D01*
X135407000Y-72711000D01*
X136798163Y-72711000D01*
X136834043Y-72660000D01*
X139671928Y-72660000D01*
X139684188Y-72784482D01*
X139720498Y-72904180D01*
X139779463Y-73014494D01*
X139858815Y-73111185D01*
X139955506Y-73190537D01*
X140065820Y-73249502D01*
X140185518Y-73285812D01*
X140310000Y-73298072D01*
X140724250Y-73295000D01*
X140883000Y-73136250D01*
X140883000Y-72187000D01*
X139833750Y-72187000D01*
X139675000Y-72345750D01*
X139671928Y-72660000D01*
X136834043Y-72660000D01*
X136923964Y-72532190D01*
X136895154Y-72452164D01*
X136960537Y-72372494D01*
X137019502Y-72262180D01*
X137055812Y-72142482D01*
X137068072Y-72018000D01*
X137065000Y-72003750D01*
X136914250Y-71853000D01*
X137071544Y-71853000D01*
X137119744Y-71885206D01*
X137308102Y-71963227D01*
X137508061Y-72003001D01*
X137711939Y-72003001D01*
X137911898Y-71963227D01*
X138100256Y-71885206D01*
X138269774Y-71771938D01*
X138413937Y-71627775D01*
X138527205Y-71458257D01*
X138605226Y-71269899D01*
X138645000Y-71069940D01*
X138645000Y-71003001D01*
X139865899Y-71003001D01*
X139858815Y-71008815D01*
X139779463Y-71105506D01*
X139720498Y-71215820D01*
X139684188Y-71335518D01*
X139671928Y-71460000D01*
X139675000Y-71774250D01*
X139833750Y-71933000D01*
X140883000Y-71933000D01*
X140883000Y-71913000D01*
X141137000Y-71913000D01*
X141137000Y-71933000D01*
X141157000Y-71933000D01*
X141157000Y-72187000D01*
X141137000Y-72187000D01*
X141137000Y-73136250D01*
X141295750Y-73295000D01*
X141630000Y-73297479D01*
X141630000Y-73725198D01*
X137488998Y-77866201D01*
X137460000Y-77889999D01*
X137436202Y-77918997D01*
X137436201Y-77918998D01*
X137365026Y-78005724D01*
X137294454Y-78137754D01*
X137250998Y-78281015D01*
X137243029Y-78361928D01*
X137238000Y-78361928D01*
X137113518Y-78374188D01*
X136993820Y-78410498D01*
X136883506Y-78469463D01*
X136786815Y-78548815D01*
X136707463Y-78645506D01*
X136648498Y-78755820D01*
X136612188Y-78875518D01*
X136599928Y-79000000D01*
X136599928Y-82000000D01*
X136612188Y-82124482D01*
X136648498Y-82244180D01*
X136707463Y-82354494D01*
X136786815Y-82451185D01*
X136883506Y-82530537D01*
X136993820Y-82589502D01*
X137113518Y-82625812D01*
X137238000Y-82638072D01*
X138762000Y-82638072D01*
X138886482Y-82625812D01*
X139006180Y-82589502D01*
X139116494Y-82530537D01*
X139213185Y-82451185D01*
X139292537Y-82354494D01*
X139351502Y-82244180D01*
X139387812Y-82124482D01*
X139400072Y-82000000D01*
X139400072Y-79000000D01*
X139387812Y-78875518D01*
X139351502Y-78755820D01*
X139292537Y-78645506D01*
X139213185Y-78548815D01*
X139116494Y-78469463D01*
X139063607Y-78441194D01*
X140240000Y-77264801D01*
X140240000Y-78361928D01*
X140238000Y-78361928D01*
X140113518Y-78374188D01*
X139993820Y-78410498D01*
X139883506Y-78469463D01*
X139786815Y-78548815D01*
X139707463Y-78645506D01*
X139648498Y-78755820D01*
X139612188Y-78875518D01*
X139599928Y-79000000D01*
X139599928Y-82000000D01*
X139612188Y-82124482D01*
X139648498Y-82244180D01*
X139707463Y-82354494D01*
X139786815Y-82451185D01*
X139883506Y-82530537D01*
X139993820Y-82589502D01*
X140113518Y-82625812D01*
X140238000Y-82638072D01*
X141762000Y-82638072D01*
X141886482Y-82625812D01*
X142006180Y-82589502D01*
X142116494Y-82530537D01*
X142213185Y-82451185D01*
X142292537Y-82354494D01*
X142351502Y-82244180D01*
X142387812Y-82124482D01*
X142400072Y-82000000D01*
X142400072Y-79000000D01*
X142387812Y-78875518D01*
X142351502Y-78755820D01*
X142292537Y-78645506D01*
X142213185Y-78548815D01*
X142116494Y-78469463D01*
X142006180Y-78410498D01*
X141886482Y-78374188D01*
X141762000Y-78361928D01*
X141760000Y-78361928D01*
X141760000Y-77354801D01*
X143065001Y-76049801D01*
X143065000Y-78388906D01*
X142993820Y-78410498D01*
X142883506Y-78469463D01*
X142786815Y-78548815D01*
X142707463Y-78645506D01*
X142648498Y-78755820D01*
X142612188Y-78875518D01*
X142599928Y-79000000D01*
X142599928Y-82000000D01*
X142612188Y-82124482D01*
X142648498Y-82244180D01*
X142707463Y-82354494D01*
X142786815Y-82451185D01*
X142883506Y-82530537D01*
X142993820Y-82589502D01*
X143113518Y-82625812D01*
X143238000Y-82638072D01*
X144762000Y-82638072D01*
X144886482Y-82625812D01*
X145006180Y-82589502D01*
X145116494Y-82530537D01*
X145213185Y-82451185D01*
X145292537Y-82354494D01*
X145351502Y-82244180D01*
X145387812Y-82124482D01*
X145400072Y-82000000D01*
X145400072Y-79000000D01*
X145387812Y-78875518D01*
X145351502Y-78755820D01*
X145292537Y-78645506D01*
X145213185Y-78548815D01*
X145116494Y-78469463D01*
X145006180Y-78410498D01*
X144935000Y-78388906D01*
X144935000Y-71362186D01*
X144973227Y-71269899D01*
X145013001Y-71069940D01*
X145013001Y-70866062D01*
X144973227Y-70666103D01*
X144935000Y-70573816D01*
X144935000Y-66581437D01*
X145005226Y-66411898D01*
X145045000Y-66211939D01*
X145045000Y-66008061D01*
X145005226Y-65808102D01*
X144927205Y-65619744D01*
X144813937Y-65450226D01*
X144669774Y-65306063D01*
X144500256Y-65192795D01*
X144311898Y-65114774D01*
X144111939Y-65075000D01*
X143908061Y-65075000D01*
X143708102Y-65114774D01*
X143519744Y-65192795D01*
X143350226Y-65306063D01*
X143206063Y-65450226D01*
X143092795Y-65619744D01*
X143014774Y-65808102D01*
X142975000Y-66008061D01*
X142975000Y-66211939D01*
X143014774Y-66411898D01*
X143065001Y-66533156D01*
X143065001Y-68233789D01*
X142560214Y-67729003D01*
X142536411Y-67699999D01*
X142420686Y-67605026D01*
X142346555Y-67565402D01*
X142348072Y-67550001D01*
X142348072Y-66849999D01*
X142331008Y-66676745D01*
X142280472Y-66510149D01*
X142198405Y-66356613D01*
X142131724Y-66275363D01*
X142161185Y-66251185D01*
X142240537Y-66154494D01*
X142299502Y-66044180D01*
X142335812Y-65924482D01*
X142348072Y-65800000D01*
X142345000Y-65485750D01*
X142186250Y-65327000D01*
X141137000Y-65327000D01*
X141137000Y-65347000D01*
X140883000Y-65347000D01*
X140883000Y-65327000D01*
X139833750Y-65327000D01*
X139675000Y-65485750D01*
X139671928Y-65800000D01*
X139684188Y-65924482D01*
X139720498Y-66044180D01*
X139779463Y-66154494D01*
X139858815Y-66251185D01*
X139888276Y-66275363D01*
X139821595Y-66356613D01*
X139740677Y-66508000D01*
X138585419Y-66508000D01*
X138625226Y-66411898D01*
X138665000Y-66211939D01*
X138665000Y-66008061D01*
X138625226Y-65808102D01*
X138547205Y-65619744D01*
X138433937Y-65450226D01*
X138289774Y-65306063D01*
X138120256Y-65192795D01*
X137931898Y-65114774D01*
X137731939Y-65075000D01*
X137528061Y-65075000D01*
X137328102Y-65114774D01*
X137163391Y-65183000D01*
X136914250Y-65183000D01*
X137065000Y-65032250D01*
X137068072Y-65018000D01*
X137055812Y-64893518D01*
X137019502Y-64773820D01*
X136960537Y-64663506D01*
X136908420Y-64600000D01*
X139671928Y-64600000D01*
X139675000Y-64914250D01*
X139833750Y-65073000D01*
X140883000Y-65073000D01*
X140883000Y-64123750D01*
X141137000Y-64123750D01*
X141137000Y-65073000D01*
X142186250Y-65073000D01*
X142345000Y-64914250D01*
X142348072Y-64600000D01*
X142335812Y-64475518D01*
X142299502Y-64355820D01*
X142240537Y-64245506D01*
X142161185Y-64148815D01*
X142064494Y-64069463D01*
X141954180Y-64010498D01*
X141834482Y-63974188D01*
X141710000Y-63961928D01*
X141295750Y-63965000D01*
X141137000Y-64123750D01*
X140883000Y-64123750D01*
X140724250Y-63965000D01*
X140310000Y-63961928D01*
X140185518Y-63974188D01*
X140065820Y-64010498D01*
X139955506Y-64069463D01*
X139858815Y-64148815D01*
X139779463Y-64245506D01*
X139720498Y-64355820D01*
X139684188Y-64475518D01*
X139671928Y-64600000D01*
X136908420Y-64600000D01*
X136895154Y-64583836D01*
X136923964Y-64503810D01*
X136798163Y-64325000D01*
X135407000Y-64325000D01*
X135407000Y-64345000D01*
X135153000Y-64345000D01*
X135153000Y-64325000D01*
X133761837Y-64325000D01*
X133636036Y-64503810D01*
X132692710Y-64503810D01*
X132694119Y-64499874D01*
X132567954Y-64325000D01*
X131227000Y-64325000D01*
X130973000Y-64325000D01*
X130953000Y-64325000D01*
X130953000Y-64071000D01*
X130973000Y-64071000D01*
X130973000Y-63063000D01*
X131227000Y-63063000D01*
X131227000Y-64071000D01*
X132567954Y-64071000D01*
X132694119Y-63896126D01*
X132692711Y-63892190D01*
X133636036Y-63892190D01*
X133761837Y-64071000D01*
X135153000Y-64071000D01*
X135153000Y-63038000D01*
X135407000Y-63038000D01*
X135407000Y-64071000D01*
X136798163Y-64071000D01*
X136923964Y-63892190D01*
X136840063Y-63659136D01*
X136715047Y-63467559D01*
X136555059Y-63304053D01*
X136366246Y-63174901D01*
X136155865Y-63085066D01*
X135932000Y-63038000D01*
X135407000Y-63038000D01*
X135153000Y-63038000D01*
X134628000Y-63038000D01*
X134404135Y-63085066D01*
X134193754Y-63174901D01*
X134004941Y-63304053D01*
X133844953Y-63467559D01*
X133719937Y-63659136D01*
X133636036Y-63892190D01*
X132692711Y-63892190D01*
X132614276Y-63673024D01*
X132492369Y-63485236D01*
X132336169Y-63324839D01*
X132151678Y-63197997D01*
X131945987Y-63109585D01*
X131727000Y-63063000D01*
X131227000Y-63063000D01*
X130973000Y-63063000D01*
X130660000Y-63063000D01*
X130660000Y-52200000D01*
X145469000Y-52200000D01*
X145469001Y-90599000D01*
G37*
%TD.AperFunction*%
%TD*%
M02*
