%TF.GenerationSoftware,KiCad,Pcbnew,(5.1.10)-1*%
%TF.CreationDate,2021-05-17T17:41:51-05:00*%
%TF.ProjectId,YMDK_USB_C,594d444b-5f55-4534-925f-432e6b696361,rev?*%
%TF.SameCoordinates,Original*%
%TF.FileFunction,Paste,Top*%
%TF.FilePolarity,Positive*%
%FSLAX46Y46*%
G04 Gerber Fmt 4.6, Leading zero omitted, Abs format (unit mm)*
G04 Created by KiCad (PCBNEW (5.1.10)-1) date 2021-05-17 17:41:51*
%MOMM*%
%LPD*%
G01*
G04 APERTURE LIST*
%ADD10R,1.150000X0.600000*%
%ADD11R,1.150000X0.300000*%
%ADD12R,1.524000X3.000000*%
G04 APERTURE END LIST*
D10*
%TO.C,J1*%
X135855000Y-65318000D03*
X135855000Y-71718000D03*
X135855000Y-66118000D03*
X135855000Y-70918000D03*
D11*
X135855000Y-68768000D03*
X135855000Y-68268000D03*
X135855000Y-69268000D03*
X135855000Y-69768000D03*
X135855000Y-70268000D03*
X135855000Y-67768000D03*
X135855000Y-67268000D03*
X135855000Y-66768000D03*
%TD*%
D12*
%TO.C,J2_5*%
X132000000Y-80500000D03*
%TD*%
%TO.C,J2_4*%
X135000000Y-80500000D03*
%TD*%
%TO.C,J2_3*%
X138000000Y-80500000D03*
%TD*%
%TO.C,J2_2*%
X141000000Y-80500000D03*
%TD*%
%TO.C,J2_1*%
X144000000Y-80500000D03*
%TD*%
%TO.C,R2*%
G36*
G01*
X140559999Y-71460000D02*
X141460001Y-71460000D01*
G75*
G02*
X141710000Y-71709999I0J-249999D01*
G01*
X141710000Y-72410001D01*
G75*
G02*
X141460001Y-72660000I-249999J0D01*
G01*
X140559999Y-72660000D01*
G75*
G02*
X140310000Y-72410001I0J249999D01*
G01*
X140310000Y-71709999D01*
G75*
G02*
X140559999Y-71460000I249999J0D01*
G01*
G37*
G36*
G01*
X140559999Y-69460000D02*
X141460001Y-69460000D01*
G75*
G02*
X141710000Y-69709999I0J-249999D01*
G01*
X141710000Y-70410001D01*
G75*
G02*
X141460001Y-70660000I-249999J0D01*
G01*
X140559999Y-70660000D01*
G75*
G02*
X140310000Y-70410001I0J249999D01*
G01*
X140310000Y-69709999D01*
G75*
G02*
X140559999Y-69460000I249999J0D01*
G01*
G37*
%TD*%
%TO.C,R1*%
G36*
G01*
X141460001Y-65800000D02*
X140559999Y-65800000D01*
G75*
G02*
X140310000Y-65550001I0J249999D01*
G01*
X140310000Y-64849999D01*
G75*
G02*
X140559999Y-64600000I249999J0D01*
G01*
X141460001Y-64600000D01*
G75*
G02*
X141710000Y-64849999I0J-249999D01*
G01*
X141710000Y-65550001D01*
G75*
G02*
X141460001Y-65800000I-249999J0D01*
G01*
G37*
G36*
G01*
X141460001Y-67800000D02*
X140559999Y-67800000D01*
G75*
G02*
X140310000Y-67550001I0J249999D01*
G01*
X140310000Y-66849999D01*
G75*
G02*
X140559999Y-66600000I249999J0D01*
G01*
X141460001Y-66600000D01*
G75*
G02*
X141710000Y-66849999I0J-249999D01*
G01*
X141710000Y-67550001D01*
G75*
G02*
X141460001Y-67800000I-249999J0D01*
G01*
G37*
%TD*%
M02*
