%TF.GenerationSoftware,KiCad,Pcbnew,(5.1.10)-1*%
%TF.CreationDate,2021-05-17T17:41:51-05:00*%
%TF.ProjectId,YMDK_USB_C,594d444b-5f55-4534-925f-432e6b696361,rev?*%
%TF.SameCoordinates,Original*%
%TF.FileFunction,Other,User*%
%FSLAX46Y46*%
G04 Gerber Fmt 4.6, Leading zero omitted, Abs format (unit mm)*
G04 Created by KiCad (PCBNEW (5.1.10)-1) date 2021-05-17 17:41:51*
%MOMM*%
%LPD*%
G01*
G04 APERTURE LIST*
%ADD10C,0.050000*%
%ADD11C,0.120000*%
G04 APERTURE END LIST*
D10*
%TO.C,J1*%
X136680000Y-73618000D02*
X136680000Y-63418000D01*
X128250000Y-73618000D02*
X136680000Y-73618000D01*
X128250000Y-63418000D02*
X128250000Y-73618000D01*
X136680000Y-63418000D02*
X128250000Y-63418000D01*
%TO.C,H2*%
X135387000Y-53492500D02*
G75*
G03*
X135387000Y-53492500I-2450000J0D01*
G01*
%TO.C,H1*%
X146182000Y-53492500D02*
G75*
G03*
X146182000Y-53492500I-2450000J0D01*
G01*
%TO.C,H4*%
X146182000Y-89306500D02*
G75*
G03*
X146182000Y-89306500I-2450000J0D01*
G01*
%TO.C,H3*%
X135387000Y-89306500D02*
G75*
G03*
X135387000Y-89306500I-2450000J0D01*
G01*
D11*
%TO.C,J2_5*%
X131100000Y-82100000D02*
X131100000Y-78900000D01*
X131100000Y-78900000D02*
X132900000Y-78900000D01*
X132900000Y-78900000D02*
X132900000Y-82100000D01*
X132900000Y-82100000D02*
X131100000Y-82100000D01*
%TO.C,J2_4*%
X134100000Y-82100000D02*
X134100000Y-78900000D01*
X134100000Y-78900000D02*
X135900000Y-78900000D01*
X135900000Y-78900000D02*
X135900000Y-82100000D01*
X135900000Y-82100000D02*
X134100000Y-82100000D01*
%TO.C,J2_3*%
X138900000Y-78900000D02*
X138900000Y-82100000D01*
X138900000Y-82100000D02*
X137100000Y-82100000D01*
X137100000Y-82100000D02*
X137100000Y-78900000D01*
X137100000Y-78900000D02*
X138900000Y-78900000D01*
%TO.C,J2_2*%
X140100000Y-82100000D02*
X140100000Y-78900000D01*
X140100000Y-78900000D02*
X141900000Y-78900000D01*
X141900000Y-78900000D02*
X141900000Y-82100000D01*
X141900000Y-82100000D02*
X140100000Y-82100000D01*
%TO.C,J2_1*%
X144900000Y-78900000D02*
X144900000Y-82100000D01*
X144900000Y-82100000D02*
X143100000Y-82100000D01*
X143100000Y-82100000D02*
X143100000Y-78900000D01*
X143100000Y-78900000D02*
X144900000Y-78900000D01*
D10*
%TO.C,R2*%
X140060000Y-69210000D02*
X141960000Y-69210000D01*
X141960000Y-69210000D02*
X141960000Y-72910000D01*
X141960000Y-72910000D02*
X140060000Y-72910000D01*
X140060000Y-72910000D02*
X140060000Y-69210000D01*
%TO.C,R1*%
X141960000Y-68050000D02*
X140060000Y-68050000D01*
X140060000Y-68050000D02*
X140060000Y-64350000D01*
X140060000Y-64350000D02*
X141960000Y-64350000D01*
X141960000Y-64350000D02*
X141960000Y-68050000D01*
%TD*%
M02*
